<?xml version="1.0" standalone="no"?>
<!DOCTYPE svg PUBLIC "-//W3C//DTD SVG 20010904//EN" "http://www.w3.org/TR/2001/REC-SVG-20010904/DTD/svg10.dtd">
<svg xmlns="http://www.w3.org/2000/svg" version="1.0" width="768.000000pt" height="768.000000pt" viewBox="0 0 768.000000 768.000000" preserveAspectRatio="xMidYMid meet">
<metadata>
Created by potrace 1.16, written by Peter Selinger 2001-2019
<meta name="Producer" content="Online-Convert"/></metadata>
<g transform="translate(0.000000,768.000000) scale(0.100000,-0.100000)" fill="#000000" stroke="none">
<path d="M3767 6954 c-44 -14 -145 -112 -1163 -1130 -813 -813 -1121 -1127 -1135 -1158 -23 -51 -25 -143 -3 -194 20 -49 70 -100 119 -123 55 -25 147 -25 205 2 35 16 242 218 926 905 484 486 884 881 887 877 4 -3 7 -1180 7 -2615 0 -2884 -6 -2644 63 -2717 46 -48 101 -71 172 -71 75 0 128 24 176 77 69 77 64 -145 64 2726 0 1434 2 2607 5 2607 3 0 403 -399 890 -886 659 -659 896 -891 928 -906 85 -39 200 -18 266 48 66 66 88 187 51 270 -25 55 -2214 2247 -2271 2275 -56 27 -128 32 -187 13z"/>
</g>
</svg>
