<?xml version="1.0" standalone="no"?>
<!DOCTYPE svg PUBLIC "-//W3C//DTD SVG 20010904//EN" "http://www.w3.org/TR/2001/REC-SVG-20010904/DTD/svg10.dtd">
<svg xmlns="http://www.w3.org/2000/svg" version="1.0" width="768.000000pt" height="768.000000pt" viewBox="0 0 768.000000 768.000000" preserveAspectRatio="xMidYMid meet">
<metadata>
Created by potrace 1.16, written by Peter Selinger 2001-2019
<meta name="Producer" content="Online-Convert"/></metadata>
<g transform="translate(0.000000,768.000000) scale(0.100000,-0.100000)" fill="#000000" stroke="none">
<path d="M3015 6211 c-29 -13 -366 -343 -1157 -1135 -1103 -1102 -1118 -1117 -1134 -1172 -18 -64 -14 -117 16 -179 27 -56 2220 -2245 2274 -2270 49 -22 139 -23 191 -1 122 52 181 199 127 318 -15 32 -247 269 -906 928 -487 487 -886 887 -886 890 0 3 1173 5 2607 5 2183 0 2614 2 2647 14 51 18 115 76 137 126 22 48 25 142 5 189 -21 50 -76 107 -126 130 l-45 21 -2605 3 c-1433 1 -2609 2 -2615 2 -5 0 390 397 877 883 687 683 891 892 907 927 27 58 27 150 2 205 -23 49 -74 99 -123 119 -51 21 -143 20 -193 -3z"/>
</g>
</svg>
