<?xml version="1.0" standalone="no"?>
<!DOCTYPE svg PUBLIC "-//W3C//DTD SVG 20010904//EN" "http://www.w3.org/TR/2001/REC-SVG-20010904/DTD/svg10.dtd">
<svg xmlns="http://www.w3.org/2000/svg" version="1.0" width="768.000000pt" height="768.000000pt" viewBox="0 0 768.000000 768.000000" preserveAspectRatio="xMidYMid meet">
<metadata>
Created by potrace 1.16, written by Peter Selinger 2001-2019
<meta name="Producer" content="Online-Convert"/></metadata>
<g transform="translate(0.000000,768.000000) scale(0.100000,-0.100000)" fill="#000000" stroke="none">
<path d="M4465 6211 c-49 -23 -99 -74 -119 -123 -22 -53 -20 -143 5 -198 16 -35 220 -244 907 -927 487 -486 882 -883 877 -883 -6 0 -1182 -1 -2615 -2 l-2605 -3 -45 -21 c-50 -23 -105 -80 -126 -130 -20 -47 -17 -141 5 -189 22 -50 86 -108 137 -126 33 -12 464 -14 2647 -14 1434 0 2607 -2 2607 -5 0 -3 -399 -403 -886 -890 -659 -659 -891 -896 -906 -928 -54 -119 5 -266 127 -318 52 -22 142 -21 191 1 54 25 2247 2214 2274 2270 30 62 34 115 16 179 -16 55 -31 70 -1134 1172 -791 792 -1128 1122 -1157 1135 -53 25 -147 24 -200 0z"/>
</g>
</svg>
