<?xml version="1.0" standalone="no"?>
<!DOCTYPE svg PUBLIC "-//W3C//DTD SVG 20010904//EN"
 "http://www.w3.org/TR/2001/REC-SVG-20010904/DTD/svg10.dtd">
<svg version="1.0" xmlns="http://www.w3.org/2000/svg"
 width="512.000000pt" height="512.000000pt" viewBox="0 0 512.000000 512.000000"
 preserveAspectRatio="xMidYMid meet">

<g transform="translate(0.000000,512.000000) scale(0.100000,-0.100000)"
fill="#000000" stroke="none">
<path d="M2320 4229 c-626 -32 -1241 -206 -1630 -460 -273 -178 -434 -371
-516 -619 -25 -76 -28 -99 -28 -220 0 -159 14 -221 79 -355 118 -242 364 -459
706 -624 308 -149 591 -232 982 -288 l187 -27 -224 -226 c-195 -196 -226 -231
-236 -269 -33 -127 48 -240 179 -249 44 -3 67 1 97 16 57 30 809 787 829 834
20 50 19 104 -4 153 -13 27 -150 170 -412 431 -361 359 -398 392 -441 404
-133 36 -253 -55 -252 -190 0 -33 7 -69 18 -90 10 -19 100 -117 199 -217 136
-138 176 -183 160 -183 -87 0 -477 91 -663 155 -130 44 -359 156 -463 225
-164 111 -289 255 -328 382 -121 389 407 790 1261 957 372 73 864 86 1260 35
765 -99 1371 -411 1481 -765 103 -332 -261 -676 -930 -878 -149 -45 -189 -69
-221 -136 -48 -99 -6 -211 97 -261 70 -34 100 -31 308 36 547 178 912 438
1074 765 62 124 80 192 88 320 20 350 -204 684 -625 932 -403 237 -948 379
-1587 413 -206 11 -228 11 -445 -1z"/>
</g>
</svg>
