<?xml version="1.0" standalone="no"?>
<!DOCTYPE svg PUBLIC "-//W3C//DTD SVG 20010904//EN"
 "http://www.w3.org/TR/2001/REC-SVG-20010904/DTD/svg10.dtd">
<svg version="1.0" xmlns="http://www.w3.org/2000/svg"
 width="512.000000pt" height="512.000000pt" viewBox="0 0 512.000000 512.000000"
 preserveAspectRatio="xMidYMid meet">
<metadata>
Created by potrace 1.16, written by Peter Selinger 2001-2019
</metadata>
<g transform="translate(0.000000,512.000000) scale(0.100000,-0.100000)"
fill="#000000" stroke="none">
<path d="M2295 5109 c-493 -62 -967 -301 -1307 -658 -333 -350 -542 -810 -588
-1296 -57 -615 155 -1234 579 -1687 l81 -86 0 -89 c0 -410 171 -836 479 -1192
71 -83 102 -101 169 -101 109 0 145 42 173 201 35 198 117 411 217 565 l39 61
74 -14 c107 -20 462 -28 589 -14 906 104 1644 750 1865 1630 47 188 60 302 60
526 0 155 -5 239 -18 320 -39 235 -102 437 -202 640 -316 646 -933 1090 -1653
1189 -123 17 -436 20 -557 5z m493 -330 c188 -21 378 -78 568 -169 574 -276
963 -830 1033 -1472 68 -622 -213 -1264 -723 -1649 -249 -188 -531 -306 -851
-355 -163 -25 -465 -15 -629 20 -140 30 -179 26 -233 -26 -80 -76 -245 -358
-302 -515 l-27 -73 -43 75 c-133 232 -192 466 -190 747 1 116 -2 153 -14 171
-8 12 -59 68 -114 122 -156 156 -265 312 -361 515 -210 443 -238 921 -80 1379
186 543 618 970 1163 1150 265 88 516 113 803 80z"/>
<path d="M2500 4089 c-67 -28 -100 -85 -100 -171 0 -109 56 -168 160 -168 105
0 160 59 160 171 0 72 -19 113 -72 152 -31 23 -111 32 -148 16z"/>
<path d="M2480 3341 c-19 -10 -45 -33 -57 -51 l-23 -33 0 -667 0 -667 23 -33
c38 -57 71 -75 137 -75 66 0 99 18 138 75 l22 33 0 666 0 666 -24 36 c-45 66
-144 89 -216 50z"/>
</g>
</svg>
