<?xml version="1.0" standalone="no"?>
<!DOCTYPE svg PUBLIC "-//W3C//DTD SVG 20010904//EN"
 "http://www.w3.org/TR/2001/REC-SVG-20010904/DTD/svg10.dtd">
<svg version="1.0" xmlns="http://www.w3.org/2000/svg"
 width="512.000000pt" height="512.000000pt" viewBox="0 0 512.000000 512.000000"
 preserveAspectRatio="xMidYMid meet">

<g transform="translate(0.000000,512.000000) scale(0.100000,-0.100000)"
fill="#000000" stroke="none">
<path d="M2230 5075 c-743 -90 -1392 -488 -1805 -1105 -86 -128 -215 -383
-270 -534 -70 -190 -124 -438 -145 -661 -59 -638 148 -1312 560 -1824 101
-125 319 -337 442 -429 199 -149 445 -284 672 -367 138 -51 376 -110 531 -131
159 -23 520 -25 665 -5 585 81 1100 335 1491 737 385 396 605 847 701 1439 8
52 13 173 13 345 -1 285 -14 398 -70 619 -158 623 -535 1153 -1079 1515 -325
217 -731 362 -1138 406 -129 13 -437 11 -568 -5z m565 -470 c242 -28 464 -94
680 -202 877 -438 1326 -1429 1074 -2373 -193 -724 -775 -1294 -1502 -1470
-701 -170 -1432 36 -1942 546 -328 328 -536 757 -589 1214 -153 1317 965 2438
2279 2285z"/>
<path d="M2021 3593 c-24 -9 -63 -35 -86 -58 -78 -78 -75 -33 -75 -975 0 -942
-3 -897 75 -975 98 -98 252 -98 350 0 78 78 75 33 75 975 0 942 3 897 -75 975
-69 70 -169 91 -264 58z"/>
<path d="M2921 3593 c-24 -9 -63 -35 -86 -58 -78 -78 -75 -33 -75 -975 0 -942
-3 -897 75 -975 98 -98 252 -98 350 0 78 78 75 33 75 975 0 942 3 897 -75 975
-69 70 -169 91 -264 58z"/>
</g>
</svg>
