<?xml version="1.0" standalone="no"?>
<!DOCTYPE svg PUBLIC "-//W3C//DTD SVG 20010904//EN"
 "http://www.w3.org/TR/2001/REC-SVG-20010904/DTD/svg10.dtd">
<svg version="1.0" xmlns="http://www.w3.org/2000/svg"
 width="512.000000pt" height="512.000000pt" viewBox="0 0 512.000000 512.000000"
 preserveAspectRatio="xMidYMid meet">
<metadata>
Created by potrace 1.16, written by Peter Selinger 2001-2019
</metadata>
<g transform="translate(0.000000,512.000000) scale(0.100000,-0.100000)"
fill="#000000" stroke="none">
<path d="M2395 4689 c-325 -25 -750 -160 -849 -270 -103 -113 -53 -299 93
-348 63 -21 106 -13 238 43 223 95 386 133 614 143 280 12 550 -44 811 -167
102 -49 200 -36 272 36 80 81 78 235 -6 310 -57 53 -266 138 -463 189 -161 41
-224 52 -395 65 -147 11 -167 11 -315 -1z"/>
<path d="M999 3975 c-28 -9 -62 -31 -88 -57 -60 -60 -199 -272 -264 -403 -95
-190 -177 -440 -177 -535 1 -151 167 -255 305 -191 83 38 105 73 150 228 59
207 136 365 271 553 94 130 105 166 82 258 -16 64 -86 134 -150 150 -58 15
-71 14 -129 -3z"/>
<path d="M3949 3957 c-24 -13 -57 -43 -74 -66 -28 -39 -30 -50 -30 -126 0 -78
2 -86 33 -127 171 -228 276 -437 333 -661 26 -106 54 -148 120 -181 104 -51
224 -23 286 67 26 37 28 47 27 131 -1 80 -6 107 -47 230 -103 307 -327 680
-440 735 -61 30 -150 28 -208 -2z"/>
<path d="M2016 3168 c-31 -20 -59 -50 -73 -77 l-23 -44 0 -487 0 -487 23 -44
c35 -66 93 -102 171 -107 78 -5 122 8 166 51 71 69 70 58 70 588 l0 475 -25
51 c-39 77 -89 107 -184 111 -72 4 -78 2 -125 -30z"/>
<path d="M2895 3186 c-44 -20 -83 -60 -105 -108 -18 -41 -20 -70 -20 -519 l0
-475 25 -51 c16 -32 41 -61 67 -79 37 -26 49 -29 124 -29 75 0 86 3 125 30 23
17 53 50 66 74 l23 44 0 492 0 493 -32 48 c-44 65 -102 94 -182 94 -34 -1 -74
-7 -91 -14z"/>
<path d="M593 2326 c-34 -16 -60 -37 -77 -63 -13 -21 -86 -175 -162 -343 -146
-323 -160 -367 -134 -445 17 -51 85 -117 136 -133 123 -36 219 13 283 146 l34
71 44 -78 c150 -265 450 -571 727 -740 240 -147 494 -242 785 -292 167 -29
460 -32 631 -6 843 130 1523 722 1755 1528 19 66 35 137 35 157 0 171 -165
272 -319 196 -67 -34 -95 -76 -127 -194 -127 -478 -469 -888 -916 -1100 -140
-66 -257 -105 -407 -137 -110 -23 -150 -27 -316 -27 -210 0 -328 17 -515 75
-130 41 -355 154 -470 236 -168 121 -347 308 -453 474 -21 32 -35 59 -32 59 3
0 18 -6 33 -14 107 -55 191 -56 269 -3 115 78 125 258 19 343 -17 14 -175 90
-351 170 -359 161 -374 165 -472 120z"/>
</g>
</svg>
