<?xml version="1.0" standalone="no"?>
<!DOCTYPE svg PUBLIC "-//W3C//DTD SVG 20010904//EN"
 "http://www.w3.org/TR/2001/REC-SVG-20010904/DTD/svg10.dtd">
<svg version="1.0" xmlns="http://www.w3.org/2000/svg"
 width="60.000000pt" height="60.000000pt" viewBox="0 0 60.000000 60.000000"
 preserveAspectRatio="xMidYMid meet">

<g transform="translate(0.000000,60.000000) scale(0.100000,-0.100000)"
fill="#000000" stroke="none">
<path d="M123 569 c-63 -18 -123 -119 -123 -205 0 -45 39 -111 104 -177 67
-69 178 -157 196 -157 18 0 120 82 190 152 66 67 110 140 110 183 0 92 -61
186 -132 206 -50 13 -117 -8 -148 -49 l-21 -26 -16 23 c-16 24 -87 61 -113 60
-8 0 -29 -5 -47 -10z m207 -189 l0 -50 50 0 50 0 0 -35 0 -35 -50 0 -50 0 0
-45 c0 -43 -1 -45 -30 -45 -29 0 -30 2 -30 45 l0 45 -50 0 -50 0 0 35 0 35 50
0 50 0 0 50 c0 49 1 50 30 50 29 0 30 -1 30 -50z"/>
</g>
</svg>
