<?xml version="1.0" standalone="no"?>
<!DOCTYPE svg PUBLIC "-//W3C//DTD SVG 20010904//EN"
 "http://www.w3.org/TR/2001/REC-SVG-20010904/DTD/svg10.dtd">
<svg version="1.0" xmlns="http://www.w3.org/2000/svg"
 width="512.000000pt" height="512.000000pt" viewBox="0 0 512.000000 512.000000"
 preserveAspectRatio="xMidYMid meet">

<g transform="translate(0.000000,512.000000) scale(0.100000,-0.100000)"
fill="#000000" stroke="none">
<path d="M2380 5114 c-19 -2 -77 -9 -128 -15 -436 -51 -856 -224 -1242 -513
-122 -91 -385 -354 -476 -476 -284 -379 -439 -747 -511 -1210 -24 -161 -24
-519 0 -680 72 -463 227 -831 511 -1210 91 -122 354 -385 476 -476 379 -284
747 -439 1210 -511 161 -24 519 -24 680 0 463 72 831 227 1210 511 122 91 385
354 476 476 284 379 439 747 511 1210 13 85 17 174 17 340 0 293 -28 483 -110
747 -124 400 -333 743 -644 1053 -408 409 -879 647 -1450 735 -100 15 -454 28
-530 19z m386 -305 c779 -75 1474 -561 1824 -1274 181 -368 258 -782 219
-1181 -104 -1070 -973 -1939 -2043 -2043 -654 -64 -1317 179 -1796 659 -541
541 -772 1291 -624 2028 224 1119 1295 1921 2420 1811z"/>
<path d="M2400 4490 c-560 -78 -969 -499 -1032 -1062 -21 -189 19 -326 126
-434 174 -174 458 -174 632 0 80 81 134 209 134 321 0 104 66 207 164 255 238
118 496 -95 421 -347 -24 -81 -74 -136 -180 -198 -260 -153 -413 -332 -500
-585 -67 -193 -32 -364 99 -496 71 -71 145 -109 245 -126 194 -33 393 73 473
252 55 123 60 130 117 165 153 93 207 132 281 202 327 308 451 749 334 1192
-111 425 -466 754 -909 846 -95 20 -313 28 -405 15z m388 -319 c316 -79 557
-317 643 -636 31 -113 32 -325 1 -442 -25 -99 -78 -216 -129 -287 -95 -133
-157 -189 -334 -300 -147 -91 -191 -142 -239 -270 -47 -125 -171 -165 -255
-80 -60 60 -57 140 12 278 69 140 177 246 353 346 359 206 428 667 141 950
-121 120 -248 171 -421 171 -174 0 -299 -50 -421 -171 -56 -56 -86 -94 -113
-150 -38 -79 -66 -186 -66 -258 0 -88 -69 -162 -150 -162 -51 0 -107 35 -131
82 -19 37 -21 53 -16 128 29 406 306 722 708 810 120 25 293 22 417 -9z"/>
<path d="M2471 1499 c-227 -44 -391 -278 -353 -505 32 -196 180 -344 376 -376
289 -48 556 219 508 508 -42 255 -281 422 -531 373z m159 -309 c45 -23 80 -80
80 -130 0 -76 -74 -150 -150 -150 -50 0 -107 35 -130 80 -25 50 -25 90 0 140
37 73 124 99 200 60z"/>
</g>
</svg>
