<?xml version="1.0" standalone="no"?>
<!DOCTYPE svg PUBLIC "-//W3C//DTD SVG 20010904//EN"
 "http://www.w3.org/TR/2001/REC-SVG-20010904/DTD/svg10.dtd">
<svg version="1.0" xmlns="http://www.w3.org/2000/svg"
 width="512.000000pt" height="512.000000pt" viewBox="0 0 512.000000 512.000000"
 preserveAspectRatio="xMidYMid meet">

<g transform="translate(0.000000,512.000000) scale(0.100000,-0.100000)"
fill="#000000" stroke="none">
<path d="M2430 4904 c-465 -41 -821 -160 -1172 -395 -266 -177 -522 -441 -690
-711 -179 -288 -297 -623 -339 -963 -16 -128 -16 -422 0 -547 56 -439 225
-846 497 -1190 74 -94 278 -298 372 -372 587 -463 1335 -621 2059 -435 155 39
283 88 448 169 662 326 1132 953 1264 1687 24 133 45 401 35 446 -23 111 -104
177 -214 177 -61 0 -115 -25 -157 -74 -42 -47 -50 -80 -57 -226 -21 -460 -209
-900 -526 -1234 -527 -555 -1340 -742 -2060 -474 -456 170 -825 503 -1045 943
-138 277 -205 555 -205 855 0 300 67 578 205 855 192 384 477 669 860 859 167
84 308 134 465 165 346 69 676 49 1002 -60 561 -187 995 -617 1201 -1188 19
-51 46 -109 62 -128 77 -97 241 -96 322 1 31 38 53 95 53 138 0 32 -57 200
-108 315 -140 322 -388 645 -664 868 -337 272 -768 454 -1193 504 -102 12
-347 21 -415 15z"/>
<path d="M2062 3969 c-46 -14 -115 -85 -130 -135 -9 -32 -12 -328 -12 -1274 0
-946 3 -1242 12 -1274 7 -23 30 -59 54 -83 67 -67 154 -81 240 -38 66 33 1285
1251 1309 1307 21 52 19 133 -5 182 -30 63 -1251 1279 -1310 1305 -48 22 -104
25 -158 10z m630 -1751 l-342 -343 0 685 0 685 342 -343 343 -342 -343 -342z"/>
</g>
</svg>
