<?xml version="1.0" standalone="no"?>
<!DOCTYPE svg PUBLIC "-//W3C//DTD SVG 20010904//EN"
 "http://www.w3.org/TR/2001/REC-SVG-20010904/DTD/svg10.dtd">
<svg version="1.0" xmlns="http://www.w3.org/2000/svg"
 width="60.000000pt" height="60.000000pt" viewBox="0 0 60.000000 60.000000"
 preserveAspectRatio="xMidYMid meet">

<g transform="translate(0.000000,60.000000) scale(0.100000,-0.100000)"
fill="#000000" stroke="none">
<path d="M115 561 c-115 -28 -145 -138 -72 -260 37 -62 233 -261 257 -261 24
0 220 200 257 262 42 69 51 132 28 181 -44 93 -181 110 -253 32 l-32 -35 -31
34 c-17 19 -38 37 -47 40 -41 11 -79 14 -107 7z m35 -41 c-8 -5 -22 -10 -31
-10 -19 0 -54 -36 -68 -70 l-10 -25 0 26 c-1 31 15 54 54 74 34 17 81 22 55 5z
m199 -197 c10 -40 14 -45 22 -30 7 12 23 17 59 17 28 0 50 -4 50 -10 0 -5 -20
-10 -45 -10 -34 0 -48 -5 -57 -20 -19 -29 -26 -25 -39 23 l-12 42 -15 -52
c-16 -57 -25 -64 -42 -33 -8 16 -23 20 -83 23 l-72 3 75 2 c46 1 80 -2 87 -9
9 -9 16 3 28 45 9 31 20 56 24 56 4 0 13 -21 20 -47z"/>
</g>
</svg>
