<?xml version="1.0" standalone="no"?>
<!DOCTYPE svg PUBLIC "-//W3C//DTD SVG 20010904//EN"
 "http://www.w3.org/TR/2001/REC-SVG-20010904/DTD/svg10.dtd">
<svg version="1.0" xmlns="http://www.w3.org/2000/svg"
 width="512.000000pt" height="512.000000pt" viewBox="0 0 512.000000 512.000000"
 preserveAspectRatio="xMidYMid meet">

<g transform="translate(0.000000,512.000000) scale(0.100000,-0.100000)"
fill="#000000" stroke="none">
<path d="M2095 5109 c-222 -32 -451 -143 -619 -300 -416 -388 -484 -1020 -163
-1494 117 -171 327 -338 522 -415 57 -22 108 -40 114 -40 7 0 11 -49 11 -149
l0 -149 -47 -6 c-124 -18 -237 -115 -273 -235 -20 -65 -21 -87 -18 -577 l3
-509 24 -60 c31 -78 48 -104 175 -265 75 -95 111 -149 121 -184 11 -37 15
-105 15 -271 0 -252 8 -295 66 -363 20 -24 55 -53 78 -65 41 -22 41 -22 626
-22 551 0 587 1 620 19 49 26 98 74 123 121 21 37 22 58 27 315 6 322 -11 268
169 539 65 98 129 205 142 237 l24 59 0 520 0 520 -24 47 c-30 61 -89 120
-149 150 -65 32 -176 32 -246 0 l-50 -23 -45 45 c-25 25 -67 55 -94 66 -76 34
-197 26 -263 -16 -18 -13 -25 -9 -75 40 -83 80 -193 107 -291 72 l-38 -14 0
77 0 77 58 18 c324 101 604 370 722 695 56 153 65 210 64 406 -1 161 -3 190
-27 277 -88 329 -306 598 -605 747 -203 102 -452 142 -677 110z m301 -170
c215 -30 423 -136 571 -293 116 -121 203 -276 244 -431 32 -120 37 -312 11
-435 -53 -257 -196 -473 -409 -621 -71 -49 -212 -119 -240 -119 -10 0 -13 43
-13 183 l1 182 56 35 c74 47 162 145 207 230 133 252 88 548 -114 751 -223
224 -564 251 -825 65 -109 -78 -189 -188 -232 -320 -22 -68 -26 -99 -26 -196
-1 -99 3 -127 27 -197 45 -139 142 -265 262 -340 l44 -28 0 -184 0 -183 -27 7
c-38 9 -176 79 -229 116 -116 80 -241 221 -310 352 -282 535 -11 1200 564
1386 151 49 285 61 438 40z m18 -529 c173 -58 299 -221 313 -405 3 -39 0 -96
-6 -128 -17 -77 -71 -184 -119 -230 l-39 -39 -5 90 c-3 71 -10 100 -31 145
-88 179 -313 221 -462 86 -69 -63 -96 -126 -103 -238 l-5 -85 -44 49 c-129
146 -155 346 -69 520 63 126 199 231 332 255 69 12 167 4 238 -20z m-78 -595
c54 -35 54 -29 54 -750 l0 -666 25 -24 c52 -53 145 -16 145 57 0 66 62 128
127 128 35 0 87 -31 109 -65 9 -14 18 -53 21 -93 6 -99 10 -110 44 -127 59
-31 115 1 126 71 13 85 55 124 133 124 32 0 48 -7 77 -34 35 -31 37 -38 40
-102 2 -38 6 -79 9 -92 13 -64 104 -86 143 -36 12 15 21 36 21 47 0 11 9 40
20 63 22 44 67 74 112 74 33 0 85 -35 108 -72 19 -32 20 -52 20 -494 0 -385
-3 -469 -15 -512 -10 -32 -61 -120 -135 -231 -119 -180 -153 -239 -173 -296
-6 -16 -13 -151 -16 -298 l-6 -269 -28 -24 -28 -24 -539 0 -539 0 -28 24 -28
24 -6 264 c-6 334 -5 329 -189 558 -51 63 -105 140 -119 170 l-26 55 -3 480
c-2 326 0 492 8 517 14 48 55 97 97 114 67 29 63 55 63 -376 0 -462 0 -460 95
-460 24 0 39 7 54 26 21 27 21 29 21 1093 0 1191 -5 1109 70 1159 40 27 92 26
136 -3z"/>
</g>
</svg>
