<?xml version="1.0" standalone="no"?>
<!DOCTYPE svg PUBLIC "-//W3C//DTD SVG 20010904//EN"
 "http://www.w3.org/TR/2001/REC-SVG-20010904/DTD/svg10.dtd">
<svg version="1.0" xmlns="http://www.w3.org/2000/svg"
 width="61.000000pt" height="60.000000pt" viewBox="0 0 61.000000 60.000000"
 preserveAspectRatio="xMidYMid meet">

<g transform="translate(0.000000,60.000000) scale(0.100000,-0.100000)"
fill="#000000" stroke="none">
<path d="M91 583 c-71 -37 -75 -52 -82 -271 -7 -223 -2 -248 61 -290 34 -23
39 -24 237 -20 185 3 204 5 230 24 64 47 80 139 31 191 -41 45 -70 53 -181 53
l-105 0 -3 118 c-3 91 -8 124 -22 145 -38 59 -109 80 -166 50z m110 -20 c44
-26 59 -69 59 -167 l0 -86 -115 0 -115 0 0 90 c0 102 14 140 58 164 36 20 78
20 113 -1z m89 -428 l0 -115 -90 0 c-103 0 -141 14 -165 60 -23 44 -19 84 12
120 36 43 54 49 156 49 l87 1 0 -115z"/>
</g>
</svg>
